Coordinates
version=1
nRows=17
nColumns=27
inDegrees=yes

Units are S.I. units (second, meters, Newtons, ...)
If the header above contains a line with 'inDegrees', this indicates whether rotational values are in degrees (yes) or radians (no).

endheader
time	pelvis_rotation	pelvis_tilt	pelvis_list	pelvis_tx	pelvis_ty	pelvis_tz	hip_flexion_r	hip_adduction_r	hip_rotation_r	knee_angle_r	knee_rotation_r	knee_adduction_r	knee_angle_r_beta	ankle_angle_r	subtalar_angle_r	mtp_angle_r	hip_flexion_l	hip_adduction_l	hip_rotation_l	knee_angle_l	knee_rotation_l	knee_adduction_l	knee_angle_l_beta	ankle_angle_l	subtalar_angle_l	mtp_angle_l
      6.13500000	     10.24666769	    -27.88458963	      5.04874312	     -0.06810445	      0.66295876	     -1.16172852	     87.26936389	    -43.63089179	     -0.07320954	     74.92291760	      0.00000000	      9.68718889	      1.30765160	      9.11730449	      0.00000000	      0.00000000	     88.22130696	    -19.02296454	      5.30336237	     67.28768640	      0.00000000	     -9.81473112	      1.17439167	      4.10655977	      0.00000000	      0.00000000
      6.14000000	     10.25493465	    -27.67493171	      4.31651977	     -0.06711518	      0.66397127	     -1.16151633	     85.86083470	    -43.51931595	     -1.32843799	     74.58652627	      0.00000000	      9.43432836	      1.30178046	      9.12425268	      0.00000000	      0.00000000	     88.18468239	    -19.00899373	      6.14665879	     67.21472058	      0.00000000	     -9.65943403	      1.17311818	      4.10056519	      0.00000000	      0.00000000
      6.14500000	     10.19498913	    -27.72345034	      5.04944904	     -0.06687996	      0.66371014	     -1.16207841	     86.89585690	    -43.62989651	     -0.16022085	     74.78274329	      0.00000000	      9.69135095	      1.30520509	      9.09649510	      0.00000000	      0.00000000	     87.87573998	    -19.05377319	      5.22816763	     67.22638378	      0.00000000	     -9.81595193	      1.17332174	      4.18601123	      0.00000000	      0.00000000
      6.15000000	     10.15075660	    -27.67816018	      5.07980177	     -0.06629131	      0.66405803	     -1.16226654	     86.79503677	    -43.59984110	     -0.12270505	     74.72191425	      0.00000000	      9.69159989	      1.30414343	      9.08871543	      0.00000000	      0.00000000	     87.72363057	    -19.08610598	      5.14953658	     67.19917566	      0.00000000	     -9.81645232	      1.17284687	      4.21787092	      0.00000000	      0.00000000
      6.15500000	     10.13444589	    -27.45936735	      4.36127921	     -0.06524890	      0.66499415	     -1.16207600	     85.41944978	    -43.47154768	     -1.33339464	     74.40802597	      0.00000000	      9.44320027	      1.29866504	      9.10775016	      0.00000000	      0.00000000	     87.69375511	    -19.11761386	      5.94831757	     67.16270214	      0.00000000	     -9.66215549	      1.17221029	      4.15999808	      0.00000000	      0.00000000
      6.16000000	     10.13954554	    -27.50235521	      5.09724143	     -0.06491948	      0.66489594	     -1.16269208	     86.37586582	    -43.64994514	     -0.23734425	     74.56642282	      0.00000000	      9.69618689	      1.30142959	      9.07556681	      0.00000000	      0.00000000	     87.34952892	    -19.07804593	      5.06844041	     67.12718298	      0.00000000	     -9.81733836	      1.17159036	      4.29424287	      0.00000000	      0.00000000
      6.16500000	     10.06936309	    -27.44723425	      5.14541332	     -0.06428687	      0.66531248	     -1.16289209	     86.28298834	    -43.59571912	     -0.16377283	     74.49938735	      0.00000000	      9.69644117	      1.30025960	      9.07540322	      0.00000000	      0.00000000	     87.16019181	    -19.14284420	      4.93630620	     67.08950126	      0.00000000	     -9.81825603	      1.17093269	      4.33207036	      0.00000000	      0.00000000
      6.17000000	      9.69324357	    -27.43683949	      5.23871302	     -0.06398311	      0.66573714	     -1.16298031	     86.46579252	    -43.11282082	      0.39204419	     74.41503530	      0.00000000	      9.44279995	      1.29878738	      9.00438482	      0.00000000	      0.00000000	     86.89901420	    -19.47563601	      4.61995372	     67.01416466	      0.00000000	     -9.66531095	      1.16961782	      4.33725452	      0.00000000	      0.00000000
      6.17500000	     10.26225255	    -27.21502676	      4.98904342	     -0.06258633	      0.66645568	     -1.16333454	     85.38035497	    -43.84738469	     -0.80667182	     74.24931249	      0.00000000	      9.70275371	      1.29589497	      9.11492993	      0.00000000	      0.00000000	     86.82237560	    -18.94667693	      5.15483460	     66.99795045	      0.00000000	     -9.81914826	      1.16933483	      4.42660071	      0.00000000	      0.00000000
      6.18000000	     10.03207961	    -27.22483482	      5.24582385	     -0.06217699	      0.66676453	     -1.16359286	     85.74915610	    -43.63925691	     -0.21388848	     74.23605067	      0.00000000	      9.70175144	      1.29566351	      9.05011395	      0.00000000	      0.00000000	     86.56282482	    -19.16100919	      4.68213633	     66.93935650	      0.00000000	     -9.81968461	      1.16831217	      4.46688566	      0.00000000	      0.00000000
      6.18500000	      9.99866729	    -27.06944976	      4.80889746	     -0.06123714	      0.66766994	     -1.16355419	     84.80431897	    -43.50286174	     -0.93924665	     73.96769693	      0.00000000	      9.45842160	      1.29097985	      9.04556662	      0.00000000	      0.00000000	     86.44470788	    -19.19980045	      5.14857551	     66.86812813	      0.00000000	     -9.66736779	      1.16706900	      4.45541000	      0.00000000	      0.00000000
      6.19000000	     10.00430169	    -27.09886185	      5.34954237	     -0.06073256	      0.66781721	     -1.16407977	     85.43822484	    -43.66774677	     -0.20421280	     74.05129629	      0.00000000	      9.70468946	      1.29243894	      9.04674228	      0.00000000	      0.00000000	     86.15706470	    -19.18239240	      4.45120921	     66.82631903	      0.00000000	     -9.82090081	      1.16633929	      4.52942320	      0.00000000	      0.00000000
      6.19500000	     10.09832554	    -27.01089972	      5.07323148	     -0.05977594	      0.66855538	     -1.16419257	     84.73454619	    -43.76533616	     -0.87208752	     73.86179525	      0.00000000	      9.70729935	      1.28913152	      9.06381332	      0.00000000	      0.00000000	     86.09613937	    -19.11790348	      4.76739193	     66.78175789	      0.00000000	     -9.82172414	      1.16556156	      4.55754837	      0.00000000	      0.00000000
      6.20000000	     10.02281853	    -26.84660620	      4.77410737	     -0.05889448	      0.66940880	     -1.16422135	     83.98695113	    -43.59384306	     -1.32671211	     73.62080023	      0.00000000	      9.46946609	      1.28492536	      9.04536867	      0.00000000	      0.00000000	     85.89311065	    -19.20258259	      5.03279110	     66.69769371	      0.00000000	     -9.67052516	      1.16409436	      4.54961941	      0.00000000	      0.00000000
      6.20500000	     10.02679537	    -26.88583166	      5.45332434	     -0.05843273	      0.66955859	     -1.16480107	     84.80781684	    -43.77802551	     -0.36071636	     73.72543151	      0.00000000	      9.71262659	      1.28675152	      9.03113739	      0.00000000	      0.00000000	     85.52966705	    -19.16044465	      4.18264362	     66.62095020	      0.00000000	     -9.82285109	      1.16275493	      4.67075654	      0.00000000	      0.00000000
      6.21000000	     10.12031093	    -26.81278500	      5.14264360	     -0.05745892	      0.67029269	     -1.16490175	     84.08018894	    -43.87501767	     -1.09556883	     73.53422251	      0.00000000	      9.71553375	      1.28341430	      9.03588716	      0.00000000	      0.00000000	     85.50855690	    -19.11721275	      4.52523865	     66.59518359	      0.00000000	     -9.82359219	      1.16230522	      4.69183189	      0.00000000	      0.00000000
      6.21500000	      9.96112309	    -26.80270319	      5.57173088	     -0.05698719	      0.67064777	     -1.16530261	     84.57365567	    -43.77254427	     -0.29940654	     73.53123915	      0.00000000	      9.71674557	      1.28336223	      8.99086289	      0.00000000	      0.00000000	     85.13583084	    -19.22819321	      3.89293837	     66.49496390	      0.00000000	     -9.82411580	      1.16055606	      4.76805872	      0.00000000	      0.00000000
